<?xml version="1.0" encoding="UTF-8"?>
<svg xmlns="http://www.w3.org/2000/svg" width="478.57142" height="478.57142" viewBox="0 0 478.57142 478.57142">
  <defs>
    <style>
      .cls-1 {
        fill: none;
        stroke: #000;
        stroke-linecap: square;
        stroke-linejoin: round;
        stroke-width: 2.38095px;
      }

      .cls-2 {
        stroke-width: 0px;
      }
    </style>
  </defs>
  <g id="Layer_1" data-name="Layer 1">
    <g id="Lagna_chart_Shyam_Bhat" data-name="Lagna chart Shyam Bhat" shape-rendering="geometricPrecision" text-rendering="geometricPrecision">
      <polygon id="tanbhav" class="cls-1" points="239.2857 1.19047 120.23809 120.23809 239.2857 239.2857 358.33334 120.23809 239.2857 1.19047"/>
      <polygon id="dhanbhav" class="cls-1" points="1.19047 1.19047 239.2857 1.19047 120.23809 120.23809 1.19047 1.19047"/>
      <polygon id="anujbhav" class="cls-1" points="1.19047 1.19047 1.19047 239.2857 120.23809 120.23809 1.19047 1.19047"/>
      <polygon id="maatabhav" class="cls-1" points="120.23809 120.23809 1.19047 239.2857 120.23809 358.33334 239.2857 239.2857 120.23809 120.23809"/>
      <polygon id="santanbhav" class="cls-1" points="1.19047 239.2857 120.23809 358.33334 1.19047 477.38095 1.19047 239.2857"/>
      <polygon id="rogbhav" class="cls-1" points="239.2857 477.38095 120.23809 358.33334 1.19047 477.38095 239.2857 477.38095"/>
      <polygon id="dampathyabhav" class="cls-1" points="239.2857 477.38095 120.23809 358.33334 239.2857 239.2857 358.33334 358.33334 239.2857 477.38095"/>
      <polygon id="aayubhav" class="cls-1" points="239.2857 477.38095 358.33334 358.33334 477.38095 477.38095 239.2857 477.38095"/>
      <polygon id="bhagyabhav" class="cls-1" points="358.33334 358.33334 477.38095 477.38095 477.38095 239.2857 358.33334 358.33334"/>
      <polygon id="karmabhav" class="cls-1" points="358.33334 358.33334 477.38095 239.2857 358.33334 120.23809 239.2857 239.2857 358.33334 358.33334"/>
      <polygon id="laabbhav" class="cls-1" points="477.38095 239.2857 358.33334 120.23809 477.38095 1.19047 477.38095 239.2857"/>
      <polygon id="karchbhav" class="cls-1" points="358.33334 120.23809 477.38095 1.19047 239.2857 1.19047 358.33334 120.23809"/>
    </g>
  </g>
  <g id="Layer_2" data-name="Layer 2">
    <path class="cls-2" d="M234.99023,105.7583h-.11963l-6.77979,3.65967-1.02002-4.01953,8.51953-4.56006h4.50049v38.99854h-5.10059v-34.07861Z"/>
    <path class="cls-2" d="M99.41845,73.85839v-3.23975l4.14014-4.02002c9.95947-9.47949,14.45947-14.51953,14.51953-20.39893,0-3.95996-1.91992-7.62012-7.73975-7.62012-3.54004,0-6.47998,1.80029-8.27979,3.30029l-1.68018-3.72021c2.7002-2.27979,6.54004-3.95947,11.03955-3.95947,8.3999,0,11.93945,5.75977,11.93945,11.33936,0,7.19971-5.21973,13.01953-13.43945,20.93896l-3.11963,2.87988v.12012h17.51904v4.37988h-24.89893Z"/>
    <path class="cls-2" d="M29.33789,133.77734c1.5.95996,4.97949,2.45947,8.63965,2.45947,6.77979,0,8.87939-4.31934,8.81934-7.55957-.05957-5.45947-4.97949-7.7998-10.07959-7.7998h-2.93994v-3.95947h2.93994c3.83984,0,8.69971-1.97998,8.69971-6.6001,0-3.11963-1.97998-5.87939-6.83984-5.87939-3.11963,0-6.11963,1.37988-7.79932,2.57959l-1.37988-3.83984c2.03955-1.5,5.99951-2.99951,10.19922-2.99951,7.67969,0,11.15967,4.55957,11.15967,9.29932,0,4.02002-2.3999,7.43994-7.19971,9.17969v.12012c4.7998.95996,8.69971,4.55957,8.69971,10.01953,0,6.23975-4.85986,11.69971-14.21924,11.69971-4.37988,0-8.21973-1.38037-10.13965-2.64014l1.43994-4.07959Z"/>
    <path class="cls-2" d="M118.43701,262.83105v-10.61914h-18.11914v-3.48047l17.39941-24.89844h5.69971v24.23926h5.45996v4.13965h-5.45996v10.61914h-4.97998ZM118.43701,248.07226v-13.01953c0-2.04004.06006-4.08008.18018-6.11963h-.18018c-1.19971,2.27979-2.15967,3.95947-3.23975,5.75977l-9.53955,13.25928v.12012h12.7793Z"/>
    <path class="cls-2" d="M53.87646,349.05566h-14.87939l-1.5,10.01953c.8999-.12012,1.73975-.23926,3.17969-.23926,3,0,6,.65918,8.3999,2.09961,3.06006,1.74023,5.57959,5.09961,5.57959,10.01953,0,7.62012-6.05957,13.31934-14.51953,13.31934-4.25977,0-7.85938-1.2002-9.71924-2.39941l1.31982-4.02051c1.62012.95996,4.7998,2.16016,8.33984,2.16016,4.97949,0,9.23926-3.24023,9.23926-8.45996-.05957-5.03906-3.41992-8.63965-11.21924-8.63965-2.22021,0-3.95996.24023-5.3999.41992l2.52002-18.71875h18.65918v4.43945Z"/>
    <path class="cls-2" d="M118.99804,410.71777c-1.08008-.05957-2.45996,0-3.95996.24023-8.2793,1.37988-12.65918,7.43945-13.55957,13.85938h.18018c1.85986-2.45996,5.1001-4.5,9.41943-4.5,6.8999,0,11.75977,4.97949,11.75977,12.59961,0,7.13965-4.85986,13.73926-12.95947,13.73926-8.33984,0-13.79932-6.47949-13.79932-16.61914,0-7.67969,2.75977-13.73926,6.59961-17.5791,3.23975-3.17969,7.55957-5.16016,12.47949-5.75977,1.56006-.24023,2.87988-.2998,3.83984-.2998v4.31934ZM117.49804,433.21679c0-5.58008-3.17969-8.93945-8.03955-8.93945-3.18018,0-6.11963,1.97949-7.55957,4.7998-.36035.59961-.6001,1.37988-.6001,2.33984.12012,6.41992,3.05957,11.15918,8.57959,11.15918,4.56006,0,7.61963-3.7793,7.61963-9.35938Z"/>
    <path class="cls-2" d="M247.07031,335.23535v3.47949l-16.97949,35.51855h-5.45996l16.91992-34.49805v-.12012h-19.07959v-4.37988h24.59912Z"/>
    <path class="cls-2" d="M342.89257,436.75585c0-4.91992,2.93945-8.39941,7.73926-10.43945l-.05957-.17969c-4.32031-2.04004-6.17969-5.40039-6.17969-8.75977,0-6.17969,5.21973-10.37988,12.05957-10.37988,7.55957,0,11.33984,4.74023,11.33984,9.59961,0,3.2998-1.62012,6.83984-6.41992,9.12012v.17969c4.85938,1.91992,7.85938,5.33984,7.85938,10.0791,0,6.78027-5.81934,11.33984-13.25977,11.33984-8.15918,0-13.0791-4.85938-13.0791-10.55957ZM363.8916,436.51562c0-4.73926-3.2998-7.01953-8.5791-8.51953-4.56055,1.32031-7.02051,4.32031-7.02051,8.04004-.17969,3.95996,2.82031,7.43945,7.7998,7.43945,4.74023,0,7.7998-2.93945,7.7998-6.95996ZM349.37207,417.0166c0,3.90039,2.94043,6,7.43945,7.2002,3.36035-1.14062,5.94043-3.54004,5.94043-7.08008,0-3.12012-1.86035-6.35938-6.59961-6.35938-4.37988,0-6.78027,2.87988-6.78027,6.23926Z"/>
    <path class="cls-2" d="M407.47753,377.05273c1.14062.12012,2.45996,0,4.25977-.17969,3.06055-.41992,5.94043-1.67969,8.16016-3.78027,2.58008-2.33984,4.43945-5.75977,5.15918-10.37891h-.17969c-2.16016,2.63965-5.2793,4.19922-9.17969,4.19922-7.01953,0-11.51953-5.2793-11.51953-11.93945,0-7.37988,5.33984-13.85938,13.31934-13.85938s12.89941,6.47949,12.89941,16.43945c0,8.58008-2.87988,14.5791-6.71973,18.29883-3,2.94043-7.13965,4.74023-11.33887,5.21973-1.91992.30078-3.60059.36035-4.86035.30078v-4.32031ZM409.39746,354.61425c0,4.85938,2.94043,8.2793,7.5,8.2793,3.54004,0,6.2998-1.74023,7.67969-4.08008.2998-.47949.47949-1.08008.47949-1.91992,0-6.65918-2.45996-11.75977-7.97949-11.75977-4.5,0-7.67969,3.95996-7.67969,9.48047Z"/>
    <g>
      <path class="cls-2" d="M292.50781,225.32666h-.11914l-6.78027,3.65967-1.01953-4.01953,8.51953-4.56006h4.5v38.99854h-5.10059v-34.07861Z"/>
      <path class="cls-2" d="M337.74707,239.48583c0,13.26025-4.91992,20.57959-13.55957,20.57959-7.62012,0-12.7793-7.13965-12.89941-20.04004,0-13.07861,5.63965-20.27832,13.55957-20.27832,8.21973,0,12.89941,7.31934,12.89941,19.73877ZM316.56738,240.08593c0,10.13965,3.12012,15.89941,7.91992,15.89941,5.39941,0,7.97949-6.2998,7.97949-16.25928,0-9.59961-2.45996-15.89941-7.91992-15.89941-4.61914,0-7.97949,5.63965-7.97949,16.25928Z"/>
    </g>
    <g>
      <path class="cls-2" d="M338.10156,31.22998h-.11914l-6.78027,3.65967-1.01953-4.01953,8.51953-4.56006h4.5v38.99854h-5.10059V31.22998Z"/>
      <path class="cls-2" d="M357.42187,65.30859v-3.23975l4.13965-4.02002c9.95996-9.47949,14.45898-14.51953,14.51953-20.39893,0-3.95996-1.91992-7.62012-7.74023-7.62012-3.54004,0-6.47949,1.80029-8.2793,3.30029l-1.67969-3.72021c2.69922-2.27979,6.53906-3.95947,11.03906-3.95947,8.39941,0,11.93945,5.75977,11.93945,11.33936,0,7.19971-5.21973,13.01953-13.43945,20.93896l-3.12012,2.87988v.12012h17.51953v4.37988h-24.89844Z"/>
    </g>
    <g>
      <path class="cls-2" d="M404.07421,106.41748h-.12012l-6.7793,3.65967-1.02051-4.01953,8.51953-4.56006h4.5v38.99854h-5.09961v-34.07861Z"/>
      <path class="cls-2" d="M434.85351,106.41748h-.12012l-6.7793,3.65967-1.02051-4.01953,8.52051-4.56006h4.49902v38.99854h-5.09961v-34.07861Z"/>
    </g>
  </g>
</svg>