<?xml version="1.0" encoding="UTF-8"?>
<svg xmlns="http://www.w3.org/2000/svg" width="478.58101" height="478.58101" viewBox="0 0 478.58101 478.58101">
  <defs>
    <style>
      .cls-1 {
        fill: none;
        stroke: #000;
        stroke-linecap: square;
        stroke-linejoin: round;
        stroke-width: 2.381px;
      }

      .cls-2 {
        stroke-width: 0px;
      }
    </style>
  </defs>
  <g id="Lagna_chart_Shyam_Bhat" data-name="Lagna_chart_Shyam Bhat" shape-rendering="geometricPrecision" text-rendering="geometricPrecision">
    <polygon id="tanbhav" class="cls-1" points="239.2905 1.1905 120.2905 120.2905 239.2905 239.2905 358.2905 120.2905 239.2905 1.1905"/>
    <polygon id="dhanbhav" class="cls-1" points="1.1905 1.1905 239.2905 1.1905 120.2905 120.2905 1.1905 1.1905"/>
    <polygon id="anujbhav" class="cls-1" points="1.1905 1.1905 1.1905 239.2905 120.2905 120.2905 1.1905 1.1905"/>
    <polygon id="maatabhav" class="cls-1" points="120.2905 120.2905 1.1905 239.2905 120.2905 358.2905 239.2905 239.2905 120.2905 120.2905"/>
    <polygon id="santanbhav" class="cls-1" points="1.1905 239.2905 120.2905 358.2905 1.1905 477.39051 1.1905 239.2905"/>
    <polygon id="rogbhav" class="cls-1" points="239.2905 477.39051 120.2905 358.2905 1.1905 477.39051 239.2905 477.39051"/>
    <polygon id="dampathyabhav" class="cls-1" points="239.2905 477.39051 120.2905 358.2905 239.2905 239.2905 358.2905 358.2905 239.2905 477.39051"/>
    <polygon id="aayubhav" class="cls-1" points="239.2905 477.39051 358.2905 358.2905 477.39051 477.39051 239.2905 477.39051"/>
    <polygon id="bhagyabhav" class="cls-1" points="358.2905 358.2905 477.39051 477.39051 477.39051 239.2905 358.2905 358.2905"/>
    <polygon id="karmabhav" class="cls-1" points="358.2905 358.2905 477.39051 239.2905 358.2905 120.2905 239.2905 239.2905 358.2905 358.2905"/>
    <polygon id="laabbhav" class="cls-1" points="477.39051 239.2905 358.2905 120.2905 477.39051 1.1905 477.39051 239.2905"/>
    <polygon id="karchbhav" class="cls-1" points="358.2905 120.2905 477.39051 1.1905 239.2905 1.1905 358.2905 120.2905"/>
  </g>
  <g id="Tiny_Box" data-name="Tiny Box">
    <rect class="cls-2" x="230.8155" y="209.75027" width="16.95" height="16.95"/>
    <rect class="cls-2" x="111.8155" y="87.72997" width="16.95" height="16.95"/>
    <rect class="cls-2" x="90.53612" y="111.8155" width="16.95" height="16.95"/>
    <rect class="cls-2" x="208.55092" y="230.8155" width="16.95" height="16.95"/>
    <rect class="cls-2" x="252.67113" y="230.8155" width="16.95" height="16.95"/>
    <rect class="cls-2" x="230.8155" y="254.56586" width="16.95" height="16.95"/>
    <rect class="cls-2" x="90.53612" y="349.8655" width="16.95" height="16.95"/>
    <rect class="cls-2" x="111.7655" y="373.90103" width="16.95" height="16.95"/>
    <rect class="cls-2" x="349.8655" y="371.49796" width="16.95" height="16.95"/>
    <rect class="cls-2" x="371.09488" y="349.8155" width="16.95" height="16.95"/>
    <rect class="cls-2" x="371.09488" y="111.7655" width="16.95" height="16.95"/>
    <rect class="cls-2" x="349.8155" y="90.13304" width="16.95" height="16.95"/>
  </g>
</svg>